<?xml version="1.0" encoding="UTF-8"?>
<!DOCTYPE svg PUBLIC "-//W3C//DTD SVG 1.1//EN" "http://www.w3.org/Graphics/SVG/1.1/DTD/svg11.dtd">
<!-- Creator: CorelDRAW X8 -->
<svg xmlns="http://www.w3.org/2000/svg" xml:space="preserve" width="25.5124mm" height="23.6133mm" version="1.1" style="shape-rendering:geometricPrecision; text-rendering:geometricPrecision; image-rendering:optimizeQuality; fill-rule:evenodd; clip-rule:evenodd"
viewBox="0 0 7845 7261"
 xmlns:xlink="http://www.w3.org/1999/xlink"
 enable-background="new 0 0 96.428 89.246">
 <defs>
  <style type="text/css">
   <![CDATA[
    .fil0 {fill:#FEFEFE}
   ]]>
  </style>
 </defs>
 <g id="Слой_x0020_1">
  <metadata id="CorelCorpID_0Corel-Layer"/>
  <g id="_2395639049040">
   <g>
    <polygon class="fil0" points="3130,394 3130,394 3130,394 "/>
    <path class="fil0" d="M1442 803c4,9 18,22 24,20 11,-3 26,-15 27,-25 10,-81 -20,-151 -67,-224 -13,48 -51,80 -24,129 17,31 25,67 40,100z"/>
    <path class="fil0" d="M2294 1148c14,-38 29,-76 39,-103 -26,-5 -26,-5 -29,-98 -32,-11 -64,-15 -56,33 9,58 -12,85 -70,94 32,14 64,29 96,43 7,10 13,21 20,31z"/>
    <path class="fil0" d="M2602 945c6,0 14,-3 18,-8 22,-24 7,-113 -18,-136 -12,-12 -19,-31 -24,-49 -4,-12 -1,-26 -1,-39 -7,0 -13,0 -20,0 0,44 0,87 0,136 9,23 19,54 31,85 2,5 9,11 14,11z"/>
    <path class="fil0" d="M2621 1018c-52,17 -31,-42 -44,-48 -27,35 -50,66 -74,97 1,4 3,7 4,11 38,-20 76,-40 114,-60z"/>
    <path class="fil0" d="M1727 1526c-3,-32 -1,-67 -8,-68 -23,-7 -50,-2 -75,-1 0,5 1,10 1,15 22,14 43,28 82,54z"/>
    <path class="fil0" d="M2313 1330c-3,-7 -5,-14 -7,-21 -47,13 -93,27 -140,40 3,9 6,17 9,26 46,-15 92,-30 138,-45z"/>
    <path class="fil0" d="M2550 1689c16,-86 0,-118 -48,-109 9,19 18,37 26,56 8,17 15,35 22,53z"/>
    <path class="fil0" d="M1901 1478c0,-7 1,-14 2,-22 -38,-2 -76,-4 -114,-7 -1,7 -1,14 -2,20 36,21 75,11 114,9z"/>
    <path class="fil0" d="M1581 1218c2,-3 -16,-19 -24,-27 -16,39 -29,69 -42,101 58,8 48,-47 66,-74z"/>
    <ellipse class="fil0" transform="matrix(-0.366399 -0.930496 0.930496 -0.366399 6281.08 3879.42)" rx="319" ry="163"/>
    <path class="fil0" d="M6991 4312c81,-31 159,-62 241,-94 -49,-226 -118,-442 -209,-650 -11,26 -22,51 -33,76 -45,-56 -109,-105 -131,-170 -33,-95 -36,-200 -52,-304 3,0 6,1 10,1 -41,-67 -85,-134 -131,-199 -19,25 -39,49 -60,76 20,19 51,49 122,118 -76,13 -145,26 -212,38 225,339 379,709 455,1108z"/>
    <path class="fil0" d="M5990 2328c-345,-171 -649,-24 -760,339 -246,802 462,2482 1213,2880 344,183 645,77 821,-359 10,-102 57,-291 42,-475 -12,-143 -31,-283 -58,-421 -83,73 -163,109 -241,112 23,143 36,290 39,441 4,15 8,29 13,42 -4,-1 -8,-1 -12,-1 0,156 -75,387 -186,443 -108,55 -357,-26 -462,-130 -634,-628 -979,-1393 -944,-2296 6,-148 42,-253 104,-317 -33,-32 -67,-64 -101,-96 88,-53 156,-44 210,33 79,-20 178,-4 294,48 42,33 124,84 188,152 73,76 141,154 206,234 53,-39 136,-62 263,-78 -57,-74 -116,-146 -179,-217 -122,-137 -285,-253 -450,-334z"/>
    <path class="fil0" d="M4303 3463c3,10 5,20 8,30 49,-6 99,-13 149,-19 -11,-18 -23,-37 -34,-55 -41,14 -82,29 -123,44z"/>
    <path class="fil0" d="M3302 4467c-5,-15 -28,-22 -38,-29 -68,48 -99,107 -84,161 4,15 28,39 38,36 48,-10 102,-120 84,-168z"/>
    <path class="fil0" d="M1596 4975c14,6 37,-1 53,-8 6,-4 7,-25 5,-37 -7,-39 -16,-78 -26,-127 -24,25 -40,42 -55,59 -29,33 -18,96 23,113z"/>
    <path class="fil0" d="M866 5087c19,14 38,27 70,51 -11,-106 -45,-147 -122,-161 -10,-2 -30,6 -34,15 -4,10 2,30 10,37 24,22 51,39 76,58z"/>
    <path class="fil0" d="M2318 5669c-1,-22 6,-51 -5,-62 -15,-15 -44,-15 -68,-22 -5,9 -9,17 -14,26 25,25 51,51 76,77 4,-7 7,-13 11,-19z"/>
    <path class="fil0" d="M1983 4566c-3,8 16,31 22,30 16,-2 34,-12 43,-24 11,-17 15,-39 21,-57 -19,3 -41,2 -57,10 -14,8 -26,26 -29,41z"/>
    <path class="fil0" d="M3664 4062l34 44 801 -942 -144 -135 -23 8c-442,149 -635,525 -763,870l-8 22 59 76c0,0 0,0 0,0 15,36 28,54 44,57z"/>
    <path class="fil0" d="M4745 5833c-43,5 -87,11 -130,17 -13,-7 -27,-14 -40,-21 9,50 19,99 26,134 31,-11 31,-11 93,84 40,-10 77,-26 37,-72 -47,-54 -42,-95 14,-142z"/>
    <path class="fil0" d="M4573 4708c21,2 60,-15 88,-31 11,-6 20,-32 21,-46 5,-44 5,-87 7,-143 -47,39 -78,65 -109,91 -59,52 -66,123 -7,129z"/>
    <path class="fil0" d="M3334 5005c-17,2 -52,20 -61,32 -10,13 -8,35 2,41 29,17 65,28 99,41 24,9 49,18 92,34 22,-123 -16,-159 -132,-148z"/>
    <path class="fil0" d="M3385 5471c39,-77 39,-77 -69,-95 -24,103 -24,103 69,95z"/>
    <path class="fil0" d="M4459 5669c40,-44 79,-88 119,-132 -8,-7 -17,-14 -25,-21 -38,45 -76,90 -115,136 7,6 14,11 21,17z"/>
    <path class="fil0" d="M5296 5176c-65,29 -20,80 -21,120 0,4 29,9 42,13 -8,-52 -14,-91 -21,-133z"/>
    <path class="fil0" d="M6830 6240c-37,-12 -68,-23 -100,-33 29,68 50,74 100,33z"/>
    <path class="fil0" d="M4743 6576c49,16 98,31 147,46 1,-7 3,-13 5,-20 -49,-14 -99,-27 -148,-41 -2,5 -3,10 -4,15z"/>
    <path class="fil0" d="M4178 6558c1,-21 1,-40 3,-80 -41,30 -67,50 -87,65 29,5 55,10 84,15z"/>
    <path class="fil0" d="M6391 1987c-1,18 -13,41 -25,54 -8,8 -46,0 -62,-12 -58,-43 -107,-99 -168,-136 -27,-17 -43,-36 -53,-57 -233,-82 -565,-119 -815,-22l-33 13c-1086,427 -1829,1107 -2270,2076 -78,172 -162,343 -258,504 19,1 39,1 58,2 -23,15 -47,20 -72,21 -220,363 -505,677 -926,843 -95,37 -197,67 -302,88 -117,23 -336,50 -515,-11 -7,-14 -26,-24 -68,-45 0,9 1,17 1,24 -315,-105 -552,-48 -728,173 -210,264 -206,551 10,832 77,101 131,222 145,325 46,351 246,557 580,596 325,39 556,-127 672,-482 30,-94 79,-224 153,-269 717,-433 1426,-515 2114,-246 -7,30 7,66 -9,97 43,-21 66,-45 70,-74 52,21 103,42 155,60 3,-52 8,-104 2,-155 -10,-79 40,-115 89,-161l-5 -2c-202,-65 -410,-133 -621,-174l-43 -8c-601,-116 -601,-116 -790,-649 -27,-77 19,-209 68,-298 145,-268 302,-536 454,-796 56,-96 113,-192 169,-288 89,-155 185,-297 288,-431 -25,-13 -52,-26 -82,-41 16,-13 49,-47 54,-43 20,14 47,21 72,30 123,-154 255,-296 401,-426 9,-67 17,-134 25,-201 13,2 27,4 40,7 1,46 7,94 1,139 158,-135 330,-258 518,-371 -62,479 -52,926 29,1344 25,-27 52,-55 83,-64 31,-9 73,20 112,34 -63,123 -41,221 55,288 17,12 47,7 72,7 27,1 55,0 83,1 -133,-404 -176,-818 -128,-1239 17,-147 52,-277 104,-388 -2,-8 -4,-16 -6,-24 9,-7 21,-16 32,-25 22,-40 45,-78 72,-112 -4,-32 -29,-61 -76,-86 -42,-22 -85,-43 -129,-57 -79,-27 -80,-69 -29,-134 79,115 162,184 301,143 22,-7 41,-1 56,11 43,-33 89,-62 139,-81 244,-97 546,-17 828,219 892,746 1282,1701 1161,2839 -36,331 -175,554 -402,644 -204,80 -474,51 -783,-85 -33,-31 -74,-68 -122,-111 -133,-119 -317,-283 -461,-472 -239,-317 -418,-643 -535,-976 -7,7 -14,14 -19,22 -5,9 -10,18 -15,27 -13,1 -25,3 -36,9 -4,2 -8,6 -11,10 8,-19 19,-42 34,-75 -128,107 -168,-25 -245,-50 -140,-43 26,-163 -65,-245 -17,13 -35,26 -55,40 45,206 105,406 185,598 14,4 27,9 36,17 9,8 8,39 0,62 176,392 429,755 758,1090 -7,-5 -12,-10 -19,-15 -10,-7 -34,-11 -39,-5 -9,11 -17,33 -12,44 42,92 119,145 215,191 -9,-29 -8,-59 -13,-85 112,106 232,210 361,311 -631,170 -1208,172 -1798,10 2,-19 4,-38 6,-56 -4,-3 -8,-6 -12,-9 -11,18 -21,36 -32,54 -37,-10 -73,-19 -110,-31l-65 -21c17,121 14,232 -32,337 587,194 1186,235 1808,123 -1,-1 -1,-1 -1,-2 10,-4 20,-8 30,-12 1,3 2,5 2,8 207,-39 417,-95 630,-167 -6,-1 -12,-2 -18,-3 52,-57 92,-104 134,-148 13,-13 41,-32 50,-27 24,13 54,35 59,58 3,13 3,25 0,37 0,0 1,0 1,0 56,-22 112,-45 168,-69 186,-81 344,-226 497,-366 69,-63 140,-128 212,-186l9 -8 4 -11c376,-1174 -338,-2988 -1352,-3619zm-3832 2830c53,35 53,35 27,120 -59,-66 -59,-66 -27,-120zm-86 259c23,34 36,53 49,73 17,27 36,54 51,83 5,10 4,31 -4,39 -7,7 -29,8 -38,2 -68,-42 -86,-93 -58,-197zm-78 274c0,0 0,0 0,0 0,0 0,0 0,-1 0,1 0,1 0,1zm-985 102c41,32 82,65 123,97 -3,4 -6,9 -9,13 -42,-31 -84,-62 -126,-93 4,-5 8,-11 12,-17zm-1084 663c-6,4 -27,-9 -34,-19 -26,-37 -44,-80 -72,-114 -45,-54 -5,-102 -1,-164 74,79 128,157 135,260 1,12 -15,31 -28,37zm170 566c9,-43 18,-83 29,-135 11,9 37,24 35,28 -15,38 9,102 -64,107zm203 190c-2,-6 -4,-12 -5,-18 31,-7 62,-19 93,-17 8,1 13,43 25,83 -54,-23 -83,-35 -113,-48zm629 -243c-6,-10 -11,-20 -17,-30 54,-27 108,-54 162,-82 5,8 9,16 14,24 -53,29 -106,58 -159,88zm465 -544c-42,34 -84,67 -126,101 -3,-4 -5,-8 -8,-12 6,-12 12,-23 17,-35 -43,22 -86,45 -127,69 -44,27 -87,64 -127,105 0,3 -1,6 -1,9 -1,-1 -2,-2 -4,-4 -76,83 -137,187 -160,283 -61,261 -172,366 -347,312 -74,-23 -136,-152 -189,-266 -21,-44 -42,-87 -63,-125 -62,-112 -110,-225 -144,-337 -12,-40 -27,-83 -43,-127 -44,-119 -93,-254 -57,-324 31,-59 70,-98 118,-117 108,-43 246,24 343,88 47,31 108,54 173,68 -48,25 -109,29 -145,80 31,-12 63,-21 92,-36 25,-12 43,-30 64,5 21,35 44,24 66,-2 22,-26 31,-50 26,-74 6,-12 12,-23 18,-35 6,2 13,5 19,7 -4,3 -8,6 -12,10 13,1 25,3 38,5 -5,19 -11,38 -16,57 55,0 110,-6 158,-20 137,-40 303,-111 455,-179 122,-55 247,-111 374,-154 62,-20 161,-6 231,29 -8,-20 -15,-40 -23,-60 8,3 18,7 27,10 4,-5 9,-10 14,-15 14,15 29,28 44,42 13,-18 30,-35 38,-55 9,-21 9,-46 14,-78 24,34 43,60 59,84 -63,79 48,58 51,104 -7,4 -18,11 -31,19 13,29 49,62 -5,86 -20,-25 -38,-48 -56,-70 -8,4 -17,8 -25,12 8,36 7,80 29,106 18,21 62,21 99,32 3,53 -45,26 -77,40 -31,-9 -63,-16 -102,-27 2,29 6,55 6,79 -6,4 -14,8 -20,12 -18,11 -35,20 -52,30 0,0 0,0 -1,-1 -22,-24 -41,-51 -62,-77 -4,4 -9,7 -13,11 12,38 23,68 35,91 -24,13 -47,26 -70,36 -11,5 -22,9 -33,14 39,-7 79,-14 119,-23 3,4 7,8 11,11 -47,7 -94,15 -142,17 -68,29 -138,58 -206,85 -88,34 -176,70 -264,109 4,-1 8,-2 13,-5zm749 -207c3,-1 5,-1 8,-2 -1,1 -1,2 -2,3 -2,0 -4,0 -6,-1zm-310 334c-15,-69 16,-109 99,-115 -41,37 -19,116 -99,115zm460 -424c47,2 96,-24 144,-38 4,9 7,18 10,28 -62,17 -124,34 -189,51 -4,-8 -6,-18 -2,-28 2,-8 4,-14 4,-19 11,3 22,5 33,6zm4223 -2975c-8,-69 -16,-134 -26,-218 22,7 69,16 69,23 -4,66 66,151 -43,195zm-1872 1442c1,2 2,4 3,6 -1,-1 -3,-2 -4,-2 0,-2 1,-3 1,-4zm2307 1506c-38,-39 -77,-43 -114,-16 -6,5 -8,17 -11,26 -11,28 -21,56 -30,84 -4,13 -8,26 -13,44 -35,-15 -71,-29 -106,-43 1,-4 2,-8 2,-11 15,3 30,4 44,9 19,5 34,7 39,-18 1,-4 10,-7 15,-11 5,-4 15,-8 14,-11 0,-8 -4,-16 -9,-23 -10,-11 -21,-21 -31,-32 3,-3 6,-6 9,-8 9,8 18,16 36,33 -24,-60 31,-59 49,-84 34,-46 57,30 99,7 -5,-16 -11,-34 -16,-51 2,-3 5,-5 8,-8 8,9 17,18 23,28 8,15 19,32 18,48 0,12 -16,24 -26,37zm245 -1530c38,10 43,22 20,61 -7,-19 -13,-38 -20,-61zm30 1151c19,-19 36,-36 59,-59 2,8 11,24 9,26 -21,14 -29,55 -68,33zm82 225c-19,-29 -30,-45 -42,-62 2,-3 3,-7 4,-11 18,7 38,11 53,22 4,4 -8,27 -15,51zm17 -568c-5,-1 -11,-14 -11,-22 -1,-27 4,-55 0,-81 -5,-42 31,-54 54,-84 12,65 13,122 -17,177 -3,6 -17,10 -26,10z"/>
    <path class="fil0" d="M1935 2908c0,7 -1,14 -2,21 -32,2 -65,8 -96,-2l30 51c6,18 23,69 40,93l0 0 64 90 28 34c92,103 214,166 384,199 95,19 169,43 238,77l25 8c29,7 51,16 69,30l78 35 15 -41c7,-22 19,-43 33,-65 19,-34 40,-69 48,-113l4 -25 -21 -15c-88,-63 -187,-93 -283,-122 -27,-8 -54,-16 -80,-24 -5,-2 -10,-3 -14,-5 21,-20 40,-42 57,-65 -5,-13 -11,-25 -17,-38 16,-3 28,-1 37,6 6,-10 14,-20 19,-31 21,-45 35,-91 44,-142 89,84 197,156 337,156 34,0 69,-5 105,-13l12 -3 9 -10c94,-106 181,-218 259,-334l8 -11 -1 -14c-3,-100 -39,-187 -82,-275 114,17 223,3 334,-44 165,-71 272,-191 319,-357 9,-29 15,-58 20,-86l19 -22 -16 6c25,-163 -7,-305 -97,-432 -21,-29 -45,-56 -74,-81l-213 -99 -63 131c-28,-33 -55,-64 -65,-100l-11 -32 -33 5c-64,8 -120,-2 -164,-33 54,3 106,-1 156,-11l36 -7 -3 -37c-2,-22 -4,-44 -5,-66 -1,-12 -2,-23 -3,-35 55,11 108,28 159,53l22 11 19 -15c86,-62 139,-146 179,-228 4,8 9,16 13,24 7,15 14,29 22,42 113,178 269,276 440,276 114,0 231,-45 338,-131 46,-38 75,-88 99,-138 33,88 49,161 52,231 7,159 55,307 147,452l16 25 51 -14c62,-17 125,-34 185,-66l43 -24 -31 -38c-85,-105 -126,-202 -128,-304l4 -3 -5 -35c5,-67 -13,-128 -30,-188l-4 -7c-8,-17 -11,-27 -10,-37l1 -9 -3 -8c-6,-17 -10,-34 -14,-52 -9,-35 -19,-72 -38,-108l-9 -18c-52,-100 -106,-203 -187,-291l-14 -10c-7,-3 -13,-9 -26,-29 -60,-65 -144,-144 -262,-174l-55 -16c-14,-2 -28,-4 -42,-6 -49,-7 -98,-15 -156,-9l-34 3 -30 6 -72 45 50 35c9,7 19,12 28,16 13,7 21,11 25,17l6 7c24,21 50,38 75,54 22,15 43,29 62,45 82,72 135,159 161,266 22,89 -2,156 -70,197 -93,55 -176,51 -247,-14 -93,-86 -154,-199 -188,-346 -9,-42 -19,-90 -11,-136l2 -12 -16 -37c-37,-88 -75,-179 -172,-236 -17,-10 -34,-22 -50,-34 -40,-28 -86,-61 -149,-74 -52,-10 -101,-11 -149,-13 -28,0 -55,-1 -78,-3 -45,-10 -88,18 -112,38 -18,15 -27,33 -26,51 2,28 23,43 36,51 1,1 2,2 3,2l2 42 50 -15c0,0 2,1 8,5 82,59 152,135 212,227 43,83 63,162 59,240 -7,138 -58,223 -161,269 -38,16 -75,26 -115,28l-86 6 28 29 -311 41c3,-97 22,-147 64,-178l30 -23 -20 -32c-29,-44 -49,-95 -62,-156 -6,-25 -10,-52 -13,-78l-4 -29 -15 -30 -58 -10 -56 110c-41,132 -42,268 -1,422 2,5 4,10 7,15 1,2 3,6 4,4l-4 14 7 14c9,18 18,36 26,54 76,170 198,371 475,417l162 -5 12 -2c13,-4 25,-7 37,-7l10 14 7 -14c28,2 53,15 76,41 4,4 8,7 10,8 73,80 89,174 51,311 -3,23 -11,42 -27,63 -9,15 -20,29 -31,41l-101 115 165 -56c-90,64 -172,80 -248,46l-18 -8 -17 9c-22,11 -42,9 -69,-5l-8 -3c-45,-13 -78,-47 -117,-86 -52,-52 -74,-121 -97,-194 -13,-43 -27,-87 -48,-129l-9 -19 -67 -10 -12 30c-42,102 -59,209 -75,313l-6 42 0 19 27 198 4 15c17,32 34,65 51,98 36,70 75,143 107,217 23,50 18,95 -14,132 -28,32 -66,31 -130,22 -42,-6 -73,-37 -91,-61 -42,-56 -62,-136 -51,-211l0 -20 -21 -2 20 -3 -5 -36c-43,-173 -165,-283 -258,-353 -8,-5 -29,-24 -38,-32l-14 -8c-11,-4 -70,-32 -81,-40l-29 -12c-20,-7 -94,-16 -117,-12l-79 -5c-3,0 -243,27 -258,95l-6 27 23 15c57,39 105,79 148,125 18,17 36,34 54,51 22,38 37,60 49,72 4,8 10,20 17,33 16,29 43,77 49,95l4 8c8,14 16,29 24,45 12,-15 15,-37 11,-66 -9,-48 24,-44 56,-33 3,93 3,93 29,98 -10,27 -25,65 -39,103 -7,-10 -13,-20 -20,-31 0,0 -1,0 -2,-1 28,61 50,128 56,202 9,110 -40,183 -132,198l-64 -3 -5 1c-29,5 -55,-7 -86,-21 -13,-6 -25,-12 -38,-17l-251 -183 44 157c35,2 71,4 106,7zm655 -744c6,0 13,0 19,0 0,13 -3,27 1,40 5,17 12,37 25,48 24,24 39,112 17,136 -4,5 -12,9 -18,8 -5,0 -11,-6 -13,-11 -12,-30 -23,-62 -31,-85 0,-48 0,-92 0,-136zm20 257c13,6 -9,65 43,48 -38,20 -75,40 -113,60 -2,-3 -3,-7 -5,-11 24,-31 48,-62 75,-97z"/>
   </g>
  </g>
 </g>
</svg>
